<?xml version="1.0" encoding="utf-8"?>
<svg width="200" height="38" viewBox="0 0 200 38" fill="none" xmlns="http://www.w3.org/2000/svg">
  <defs>
    <linearGradient id="redGradient" x1="0%" y1="0%" x2="100%" y2="100%">
      <stop offset="0" stop-color="#FF5252"/>
      <stop offset="1" stop-color="#B71C1C"/>
    </linearGradient>
  </defs>
  <path d="M10 29H0V7H16C19.3137 7 22 9.68629 22 13C22 15.6124 20.3302 17.8348 18 18.6568L22 29H16L12.5 19H10V29Z" fill="url(#redGradient)"/>
  <path d="M 33.622 7.041 C 39.697 7.041 44.622 11.966 44.622 18.041 C 44.622 24.116 39.697 29.041 33.622 29.041 C 27.547 29.041 22.622 24.116 22.622 18.041 C 22.622 11.966 27.547 7.041 33.622 7.041 Z" fill="url(#redGradient)"/>
  <path d="M 76.512 29.318 L 66.512 29.318 L 61.512 22.318 L 56.512 29.318 L 46.512 29.318 L 46.512 7.318 L 56.512 7.318 L 56.512 17.318 L 61.512 7.318 L 66.512 7.318 L 71.512 17.318 L 71.512 7.318 L 81.512 7.318 L 81.512 29.318 L 76.512 29.318 Z" fill="url(#redGradient)" style="transform-box: fill-box; transform-origin: 50% 50%;" transform="matrix(-1, 0, 0, -1, -0.000003, -0.000003)"/>
  <path d="M 94.014 29.49 L 84.014 29.49 L 84.014 7.49 L 94.014 7.49 L 94.014 11.49 L 88.014 11.49 L 88.014 16.49 L 94.014 16.49 L 94.014 20.49 L 88.014 20.49 L 88.014 25.49 L 94.014 25.49 L 94.014 29.49 Z" fill="url(#redGradient)"/>
  <path d="M 107.286 7.205 C 113.361 7.205 118.286 12.13 118.286 18.205 C 118.286 24.28 113.361 29.205 107.286 29.205 C 101.211 29.205 96.286 24.28 96.286 18.205 C 96.286 12.13 101.211 7.205 107.286 7.205 Z" fill="url(#redGradient)"/>
</svg>